<?xml version="1.0" encoding="iso-8859-1"?>
<!-- Generator: Adobe Illustrator 19.0.0, SVG Export Plug-In . SVG Version: 6.00 Build 0)  -->
<svg version="1.1" id="Layer_1" xmlns="http://www.w3.org/2000/svg" xmlns:xlink="http://www.w3.org/1999/xlink" x="0px" y="0px"
	 viewBox="0 0 512 512" style="enable-background:new 0 0 512 512;" xml:space="preserve">
<circle style="fill:#FAD55C;" cx="256" cy="255.991" r="255.991"/>
<path style="fill:#E3C04D;" d="M510.836,280.437C498.521,410.348,389.136,512,256,512c-9.236,0-18.344-0.495-27.342-1.448
	l-96.1-96.118L379.46,149.061L510.836,280.437z"/>
<polygon style="fill:#F8F8F8;" points="132.559,97.566 327.965,97.566 379.46,149.061 379.46,414.434 132.559,414.434 "/>
<polygon style="fill:#6BC9EF;" points="132.559,97.566 327.965,97.566 379.46,149.061 379.46,173.837 132.559,173.837 "/>
<polygon style="fill:#EBECEC;" points="327.965,97.566 327.965,149.061 379.46,149.061 "/>
<path style="fill:#F8F8F8;" d="M190.541,158.553h-9.749l-3.867-10.189h-17.941l-3.72,10.189h-9.566l17.373-44.733h9.566
	L190.541,158.553z M173.993,140.814l-6.212-16.548l-6.047,16.548H173.993z M202.178,158.553l-15.998-44.733h9.786l11.362,33.114
	l10.904-33.114h9.621l-15.907,44.733H202.178z M232.085,158.553v-44.733h9.071v44.733H232.085z"/>
<polygon style="fill:#857E8A;" points="165.948,249.98 346.071,249.98 346.071,316.887 165.948,316.887 "/>
<path style="fill:#58515E;" d="M165.948,316.887h20.763V249.98h-20.763v-24.85h180.123v24.85h-20.763v66.907h20.763v24.831H165.948
	V316.887z M173.26,230.372h14.789v13.433H173.26V230.372z M173.26,323.063h14.789v13.414H173.26V323.063z M323.97,323.063h14.789
	v13.414H323.97V323.063z M298.845,323.063h14.789v13.414h-14.789V323.063z M273.739,323.063h14.789v13.414h-14.789V323.063z
	 M248.615,323.063h14.789v13.414h-14.789V323.063z M223.49,323.063h14.789v13.414H223.49V323.063z M198.366,323.063h14.807v13.414
	h-14.807V323.063z M323.97,230.372h14.789v13.433H323.97V230.372z M298.845,230.372h14.789v13.433h-14.789V230.372z
	 M273.739,230.372h14.789v13.433h-14.789V230.372z M248.615,230.372h14.789v13.433h-14.789V230.372z M223.49,230.372h14.789v13.433
	H223.49V230.372z M198.366,230.372h14.807v13.433h-14.807V230.372z M201.719,316.887h108.579V249.98H201.719V316.887z"/>
<path style="fill:#F8F8F8;" d="M244.253,259.161l26.114,22.046c1.301,1.1,1.301,3.354,0,4.435l-26.114,22.064
	c-1.558,1.301-3.592,0.733-3.592-1.411c0-14.899,0-30.824,0-45.722C240.661,258.428,242.696,257.842,244.253,259.161z"/>
<g>
</g>
<g>
</g>
<g>
</g>
<g>
</g>
<g>
</g>
<g>
</g>
<g>
</g>
<g>
</g>
<g>
</g>
<g>
</g>
<g>
</g>
<g>
</g>
<g>
</g>
<g>
</g>
<g>
</g>
</svg>
