<svg height="512pt" viewBox="-63 0 511 512" width="512pt" xmlns="http://www.w3.org/2000/svg"><path d="m262.070312 0h-240.960937c-11.382813 0-20.609375 9.226562-20.609375 20.605469v470.785156c0 11.378906 9.226562 20.605469 20.609375 20.605469h343.84375c11.378906 0 20.605469-9.226563 20.605469-20.605469v-375.605469c0-5.742187-2.398438-11.226562-6.613282-15.125l-102.882812-95.179687c-3.804688-3.523438-8.804688-5.480469-13.992188-5.480469zm0 0" fill="#d9e7ec"/><path d="m385.5625 115.785156v375.609375c0 11.375-9.230469 20.605469-20.605469 20.605469h-29.007812c11.386719 0 20.609375-9.230469 20.609375-20.605469v-411.445312l22.390625 20.710937c4.214843 3.902344 6.613281 9.386719 6.613281 15.125zm0 0" fill="#c5d3dd"/><path d="m378.402344 100.21875h-85.941406c-10.320313 0-18.679688-8.359375-18.679688-18.679688v-77.878906c.789062.539063 1.5625 1.148438 2.28125 1.820313l78.390625 72.519531zm0 0" fill="#8d9ca8"/><path d="m280.136719 210.027344c0 48.105468-39 87.105468-87.105469 87.105468s-87.101562-39-87.101562-87.105468c0-48.105469 38.996093-87.101563 87.101562-87.101563s87.105469 38.996094 87.105469 87.101563zm0 0" fill="#ea4444"/><path d="m280.136719 210.027344c0 48.109375-38.996094 87.105468-87.105469 87.105468-20.257812 0-38.910156-6.914062-53.699219-18.515624 9.097657 3.226562 18.886719 4.980468 29.089844 4.980468 48.097656 0 87.101563-39 87.101563-87.101562 0-27.847656-13.066407-52.644532-33.40625-68.589844 33.8125 11.964844 58.019531 44.214844 58.019531 82.121094zm0 0" fill="#d93131"/><path d="m231.339844 202.121094-49.230469-28.421875c-6.085937-3.511719-13.691406.878906-13.691406 7.90625v56.84375c0 7.027343 7.605469 11.417969 13.691406 7.90625l49.230469-28.421875c6.082031-3.511719 6.082031-12.296875 0-15.8125zm0 0" fill="#d9e7ec"/><path d="m231.335938 217.933594-49.222657 28.421875c-6.082031 3.515625-13.691406-.878907-13.691406-7.90625v-7.390625l56.519531-32.625 6.390625 3.6875c6.085938 3.515625 6.085938 12.300781.003907 15.8125zm0 0" fill="#c5d3dd"/><path d="m385.5625 350.492188v140.898437c0 11.386719-9.222656 20.609375-20.609375 20.609375h-343.84375c-11.375 0-20.609375-9.222656-20.609375-20.609375v-140.898437zm0 0" fill="#ea4444"/><g fill="#d9e7ec"><path d="m114.136719 384.96875c0-2.730469 2.851562-4.15625 5.582031-4.15625h41.707031c2.851563 0 4.039063 2.851562 4.039063 5.464844 0 3.089844-1.425782 5.703125-4.039063 5.703125h-34.695312v27.210937h18.417969c2.613281 0 4.039062 2.375 4.039062 5.109375 0 2.253907-1.1875 4.871094-4.039062 4.871094h-18.417969v34.335937c0 2.851563-3.089844 4.160157-6.296875 4.160157-3.089844 0-6.296875-1.308594-6.296875-4.160157zm0 0"/><path d="m179.367188 467.667969c-2.730469 0-5.585938-1.425781-5.585938-4.160157v-78.65625c0-2.855468 3.210938-4.039062 6.300781-4.039062 3.207031 0 6.296875 1.1875 6.296875 4.039062v71.644532h30.894532c2.492187 0 3.800781 2.734375 3.800781 5.585937 0 2.734375-1.308594 5.585938-3.800781 5.585938zm0 0"/><path d="m214.777344 387.105469c-.121094-.355469-.121094-.710938-.121094-1.066407 0-3.089843 4.398438-5.230468 7.84375-5.230468 2.140625 0 3.804688.714844 4.394531 2.613281l19.605469 67.730469 19.488281-67.730469c.59375-1.898437 2.257813-2.613281 4.277344-2.613281 3.5625 0 7.960937 2.257812 7.960937 5.230468 0 .355469-.121093.710938-.238281 1.066407l-23.527343 76.996093c-.832032 2.851563-4.394532 4.277344-7.960938 4.277344-3.5625 0-7.011719-1.425781-7.960938-4.277344zm0 0"/></g><path d="m385.5625 350.496094v140.894531c0 11.386719-9.222656 20.609375-20.609375 20.609375h-28.996094c11.386719 0 20.609375-9.222656 20.609375-20.609375v-140.894531zm0 0" fill="#d93131"/></svg>