<?xml version="1.0" encoding="iso-8859-1"?>
<!-- Generator: Adobe Illustrator 19.0.0, SVG Export Plug-In . SVG Version: 6.00 Build 0)  -->
<svg version="1.1" id="Capa_1" xmlns="http://www.w3.org/2000/svg" xmlns:xlink="http://www.w3.org/1999/xlink" x="0px" y="0px"
	 viewBox="0 0 416 416" style="enable-background:new 0 0 416 416;" xml:space="preserve">
<path style="fill:#00FFB0;" d="M280,80v40c0,17.672-14.328,32-32,32H40c-17.672,0-32-14.328-32-32V80c0-17.672,14.328-32,32-32h208
	C265.672,48,280,62.328,280,80z"/>
<g>
	<path style="fill:#000A64;" d="M85.024,128.12c14.984,0,25.144-10.496,25.144-28.304c0-17.736-10.16-27.808-25.144-27.808
		S59.88,82,59.88,99.816C59.888,117.632,70.04,128.12,85.024,128.12z M85.024,84.328c6.496,0,10.496,5.664,10.496,15.488
		s-4,15.984-10.496,15.984s-10.488-6.168-10.488-15.984C74.536,89.992,78.536,84.328,85.024,84.328z"/>
	<path style="fill:#000A64;" d="M144.432,128.12c7.664,0,14.656-3.336,18.648-6.664V95.648h-20.648v11.656h7.992v7.496
		c-1,0.664-2.664,1-4.16,1c-9.656,0-14.152-5.664-14.152-15.824c0-9.824,5.496-15.656,12.824-15.656
		c4.328,0,6.664,1.336,9.328,3.664l7.824-8.824c-3.832-3.832-9.656-7.16-17.32-7.16c-14.816,0-27.304,10.328-27.304,28.472
		C117.464,118.96,129.616,128.12,144.432,128.12z"/>
	<path style="fill:#000A64;" d="M198.176,128.12c7.664,0,14.656-3.336,18.648-6.664V95.648h-20.648v11.656h7.992v7.496
		c-1,0.664-2.664,1-4.168,1c-9.656,0-14.152-5.664-14.152-15.824c0-9.824,5.496-15.656,12.824-15.656
		c4.328,0,6.664,1.336,9.328,3.664l7.824-8.824c-3.832-3.832-9.656-7.16-17.32-7.16c-14.816,0-27.304,10.328-27.304,28.472
		C171.208,118.96,183.36,128.12,198.176,128.12z"/>
	<rect x="32" y="112" style="fill:#000A64;" width="16" height="16"/>
	<path style="fill:#000A64;" d="M333.656,2.344C332.16,0.84,330.128,0,328,0h-8H120C97.944,0,80,17.944,80,40H40
		C17.944,40,0,57.944,0,80v40c0,22.056,17.944,40,40,40h40v184c0,22.056,17.944,40,40,40h24c4.416,0,8-3.584,8-8s-3.584-8-8-8h-24
		c-13.232,0-24-10.768-24-24V160h152c22.056,0,40-17.944,40-40V80c0-22.056-17.944-40-40-40H96c0-13.232,10.768-24,24-24h192v48
		c0,22.056,17.944,40,40,40h48v240c0,13.232-10.768,24-24,24h-24c-4.424,0-8,3.584-8,8s3.576,8,8,8h24c22.056,0,40-17.944,40-40V96
		v-8c0-2.12-0.84-4.16-2.344-5.656L333.656,2.344z M248,56c13.232,0,24,10.768,24,24v40c0,13.232-10.768,24-24,24H40
		c-13.232,0-24-10.768-24-24V80c0-13.232,10.768-24,24-24H248z"/>
	<path style="fill:#000A64;" d="M296,416c22.056,0,40-17.944,40-40v-80c0-22.056-17.944-40-40-40h-96c-22.056,0-40,17.944-40,40v80
		c0,22.056,17.944,40,40,40H296z M176,376v-80c0-13.232,10.768-24,24-24h96c13.232,0,24,10.768,24,24v80c0,13.232-10.768,24-24,24
		h-96C186.768,400,176,389.232,176,376z"/>
	<polygon style="fill:#000A64;" points="240,325.416 264,315.816 264,352 256,352 256,368 280,368 280,292.184 224,314.584 224,360 
		216,360 216,376 240,376 	"/>
</g>
<g>
</g>
<g>
</g>
<g>
</g>
<g>
</g>
<g>
</g>
<g>
</g>
<g>
</g>
<g>
</g>
<g>
</g>
<g>
</g>
<g>
</g>
<g>
</g>
<g>
</g>
<g>
</g>
<g>
</g>
</svg>
